<svg xmlns="http://www.w3.org/2000/svg" width="12.8583in" height="3.5498in" viewBox="0 0 925.799 255.588"><defs><style>.a,.b{fill:none;stroke:#fff;stroke-linecap:round;stroke-miterlimit:10;}.a{stroke-width:16px;}.b{stroke-width:18px;}path{fill:#fff;}</style></defs><title>ozawa-logo</title><rect class="a" x="8" y="8" width="909.799" height="239.588" rx="56.05" ry="56.05"/><rect class="b" x="42.1091" y="41.0979" width="841.5808" height="173.3923" rx="35.3739" ry="35.3739"/><path d="M502.0933,670.2188A53.884,53.884,0,0,1,522.5249,690.73a62.4375,62.4375,0,0,1-.08,59.3862,54.2827,54.2827,0,0,1-20.5112,20.5908,59.4046,59.4046,0,0,1-57.3989,0,54.2439,54.2439,0,0,1-20.5108-20.5908,62.1448,62.1448,0,0,1,0-59.3862,54.4139,54.4139,0,0,1,20.5108-20.5112,59.7066,59.7066,0,0,1,57.5581,0Zm-50.085,26.5532q-7.8707,8.6674-7.8706,23.6113,0,14.7869,7.8706,23.5317,7.8707,8.7467,21.2266,8.7452,13.1952,0,21.1469-8.7452,7.9484-8.7421,7.95-23.5317,0-14.7868-7.8706-23.5322-7.87-8.7423-21.226-8.7447Q459.8785,688.1064,452.0083,696.772Z" transform="translate(-257.1005 -592.206)"/><path d="M573.4028,755.0449H623.01v21.9424H543.1924v-20.67l48.813-69.96H543.8286V664.5742h78.8643v20.67Z" transform="translate(-257.1005 -592.206)"/><path d="M709.3472,756.4756H667.2114l-6.9961,20.5117H631.5962l41.1807-111.6182H704.1l41.18,111.6182h-28.938Zm-6.9961-20.67-13.9922-41.3394-14.1514,41.3394Z" transform="translate(-257.1005 -592.206)"/><path d="M908.5723,664.5742,881.7012,776.9873h-33.708L830.0264,701.78,811.9,776.9873h-33.708L751.3213,664.5742h29.5742l14.4688,81.4082,19.7168-81.4082h29.7324l19.7158,81.4082,14.6279-81.4082Z" transform="translate(-257.1005 -592.206)"/><path d="M992.5244,756.4756H950.3887l-6.9961,20.5117H914.7734l41.1807-111.6182h31.3232l41.1807,111.6182H999.52Zm-6.9961-20.67-13.9922-41.3394-14.1513,41.3394Z" transform="translate(-257.1005 -592.206)"/></svg>